<?xml version="1.0" encoding="UTF-8" standalone="no"?>
<svg
   xmlns:dc="http://purl.org/dc/elements/1.1/"
   xmlns:cc="http://creativecommons.org/ns#"
   xmlns:rdf="http://www.w3.org/1999/02/22-rdf-syntax-ns#"
   xmlns:svg="http://www.w3.org/2000/svg"
   xmlns="http://www.w3.org/2000/svg"
   version="1.1"
   id="svg152"
   width="430.27164"
   height="147.20815"
   viewBox="0 0 430.27163 147.20814">
  <metadata
     id="metadata158">
    <rdf:RDF>
      <cc:Work
         rdf:about="">
        <dc:format>image/svg+xml</dc:format>
        <dc:type
           rdf:resource="http://purl.org/dc/dcmitype/StillImage" />
        <dc:title></dc:title>
      </cc:Work>
    </rdf:RDF>
  </metadata>
  <defs
     id="defs156" />
  <g
     id="g160"
     transform="translate(-1.4260817,-7.9675661)">
    <path
       style="fill:#000000;stroke-width:0.32"
       d="m 2.5218477,149.97303 c 0.602672,-2.8615 7.6211713,-35.94672 15.5966653,-73.522718 L 32.619411,8.1303115 67.306841,8.036967 c 36.010889,-0.096906 39.016089,-0.01431 45.247439,1.2435855 21.79092,4.3988415 35.38493,20.4849515 36.94152,43.7137625 0.81738,12.1976 -1.59036,24.25873 -6.94028,34.766173 C 133.02256,106.48355 116.005,118.332 93.433391,121.9617 c -3.96971,0.63836 -5.66768,0.6896 -26.71834,0.80637 l -22.47923,0.12469 -0.22014,0.85878 c -0.12108,0.47232 -1.88778,7.69877 -3.926,16.05877 l -3.70586,15.2 -17.478868,0.0827 -17.4788713,0.0827 z M 90.634281,91.114021 c 6.47159,-1.766339 10.511169,-4.027082 14.739069,-8.248707 4.50016,-4.493476 7.33603,-9.824004 8.69031,-16.335002 0.51404,-2.471405 0.60277,-3.848003 0.47435,-7.36 -0.0901,-2.463094 -0.38048,-5.14529 -0.67565,-6.24 -1.46559,-5.435459 -4.84137,-9.776634 -9.20169,-11.833133 -4.799219,-2.263498 -4.2016,-2.206791 -24.553389,-2.329829 -10.10185,-0.06107 -18.47848,0.0046 -18.61473,0.145962 -0.22087,0.229138 -10.85827,52.06308 -10.85827,52.9102 0,0.243398 5.42566,0.311632 18.48,0.2324 l 18.48,-0.11216 z m 92.918449,63.496289 c 0.28991,-1.00475 24.52155,-115.206894 24.52155,-115.568478 0,-0.252172 -6.64732,-0.35152 -23.52,-0.35152 -12.936,0 -23.51252,-0.108 -23.50339,-0.24 0.009,-0.132 1.35047,-7.008 2.98073,-15.28 l 2.96411,-15.0400005 64.07392,-0.080785 64.07393,-0.080785 -0.22404,1.2007848 c -0.12322,0.6604318 -1.46773,7.5367847 -2.9878,15.2807847 l -2.76378,14.08 -23.10127,0.0821 -23.10127,0.0821 -0.16724,0.717897 c -0.15953,0.684799 -24.00951,113.047182 -24.38393,114.877902 l -0.17997,0.88 h -17.42156 c -16.44019,0 -17.41247,-0.0316 -17.25999,-0.56 z m 100.15235,-0.16 c 0.36621,-1.46336 30.9292,-145.9346219 30.9292,-146.2023267 0,-0.4087686 69.57379,-0.3543917 73.64608,0.05756 17.90506,1.8112557 30.95526,10.2117577 38.16486,24.5669237 2.62996,5.236544 4.20247,10.874994 5.01389,17.977845 0.47197,4.131552 0.21171,13.317226 -0.49865,17.6 -3.12042,18.81281 -13.52567,34.531568 -29.29264,44.251118 -5.57671,3.43774 -13.96455,6.78821 -20.47354,8.17801 -8.1984,1.75051 -8.24365,1.75316 -32.16,1.88595 -12.32,0.0684 -22.49859,0.2235 -22.6191,0.34465 -0.16154,0.16239 -5.42266,21.34767 -7.78301,31.34027 l -0.17008,0.72 h -17.4686 -17.46859 z m 86.04968,-62.794136 c 12.98349,-1.957049 22.64662,-10.659097 26.08192,-23.48782 0.71261,-2.661248 0.82406,-3.728 0.82304,-7.878042 0,-3.905606 -0.12851,-5.265114 -0.68435,-7.296154 -1.89751,-6.93312 -6.14183,-11.349401 -12.86336,-13.384483 -2.35245,-0.712246 -2.74925,-0.728138 -21.0072,-0.841309 l -18.60951,-0.11535 -0.3654,1.698646 c -0.201,0.93426 -2.59607,12.71465 -5.32244,26.17865 -2.72633,13.464 -5.03334,24.732 -5.12665,25.04 -0.1601,0.52847 0.79101,0.559894 16.8919,0.558112 13.37411,-0.0016 17.736,-0.103542 20.18205,-0.47225 z"
       id="path164" />
  </g>
</svg>
