<svg id="Capa_1" data-name="Capa 1" xmlns="http://www.w3.org/2000/svg" xmlns:xlink="http://www.w3.org/1999/xlink" viewBox="0 0 1500 1500"><defs><style>.cls-1{fill:url(#Degradado_sin_nombre_118);}.cls-2{fill:url(#Degradado_sin_nombre_147);}.cls-3{fill:url(#Degradado_sin_nombre_147-2);}.cls-4{fill:url(#Degradado_sin_nombre_147-3);}.cls-5{fill:url(#Degradado_sin_nombre_147-4);}.cls-6{fill:url(#Degradado_sin_nombre_147-5);}.cls-7{fill:url(#Degradado_sin_nombre_147-6);}.cls-8{fill:url(#Degradado_sin_nombre_147-7);}.cls-9{fill:url(#Degradado_sin_nombre_147-8);}.cls-10{fill:url(#Degradado_sin_nombre_147-9);}.cls-11{fill:url(#Degradado_sin_nombre_147-10);}.cls-12{fill:url(#Degradado_sin_nombre_147-11);}.cls-13{fill:url(#Degradado_sin_nombre_3);}.cls-14{fill:url(#Degradado_sin_nombre_3-2);}.cls-15{fill:url(#Degradado_sin_nombre_3-3);}.cls-16{fill:url(#Degradado_sin_nombre_3-4);}.cls-17{fill:url(#Degradado_sin_nombre_3-5);}.cls-18{fill:url(#Degradado_sin_nombre_3-6);}</style><linearGradient id="Degradado_sin_nombre_118" x1="1541.94" y1="3761.23" x2="1795.08" y2="3761.23" gradientTransform="translate(784.01 -3344.45) rotate(30)" gradientUnits="userSpaceOnUse"><stop offset="0" stop-color="#333"/><stop offset="1"/></linearGradient><linearGradient id="Degradado_sin_nombre_147" x1="254.19" y1="745.9" x2="444.77" y2="745.9" gradientUnits="userSpaceOnUse"><stop offset="0" stop-color="#0492c7"/><stop offset="1" stop-color="#00ff91"/></linearGradient><linearGradient id="Degradado_sin_nombre_147-2" x1="246.32" y1="695.35" x2="267.79" y2="695.35" xlink:href="#Degradado_sin_nombre_147"/><linearGradient id="Degradado_sin_nombre_147-3" x1="427.92" y1="695.35" x2="449.39" y2="695.35" xlink:href="#Degradado_sin_nombre_147"/><linearGradient id="Degradado_sin_nombre_147-4" x1="246.32" y1="798.23" x2="267.79" y2="798.23" xlink:href="#Degradado_sin_nombre_147"/><linearGradient id="Degradado_sin_nombre_147-5" x1="427.92" y1="798.23" x2="449.39" y2="798.23" xlink:href="#Degradado_sin_nombre_147"/><linearGradient id="Degradado_sin_nombre_147-6" x1="337.57" y1="641.68" x2="359.04" y2="641.68" xlink:href="#Degradado_sin_nombre_147"/><linearGradient id="Degradado_sin_nombre_147-7" x1="337.57" y1="851.01" x2="359.04" y2="851.01" xlink:href="#Degradado_sin_nombre_147"/><linearGradient id="Degradado_sin_nombre_147-8" x1="316.28" y1="701.77" x2="411.22" y2="701.77" gradientTransform="translate(413.67 -87.09) rotate(31.02)" xlink:href="#Degradado_sin_nombre_147"/><linearGradient id="Degradado_sin_nombre_147-9" x1="286.75" y1="789.44" x2="381.7" y2="789.44" gradientTransform="translate(454.63 -59.34) rotate(31.02)" xlink:href="#Degradado_sin_nombre_147"/><linearGradient id="Degradado_sin_nombre_147-10" x1="307.15" y1="729.35" x2="328.62" y2="729.35" xlink:href="#Degradado_sin_nombre_147"/><linearGradient id="Degradado_sin_nombre_147-11" x1="369.35" y1="761.87" x2="390.82" y2="761.87" xlink:href="#Degradado_sin_nombre_147"/><linearGradient id="Degradado_sin_nombre_3" x1="578.14" y1="807.64" x2="578.14" y2="691.16" gradientUnits="userSpaceOnUse"><stop offset="0"/><stop offset="1" stop-color="#333"/></linearGradient><linearGradient id="Degradado_sin_nombre_3-2" x1="708.28" y1="804.7" x2="708.28" y2="693.95" xlink:href="#Degradado_sin_nombre_3"/><linearGradient id="Degradado_sin_nombre_3-3" x1="847.68" y1="804.7" x2="847.68" y2="693.95" xlink:href="#Degradado_sin_nombre_3"/><linearGradient id="Degradado_sin_nombre_3-4" x1="977.39" y1="804.7" x2="977.39" y2="693.95" xlink:href="#Degradado_sin_nombre_3"/><linearGradient id="Degradado_sin_nombre_3-5" x1="1083.67" y1="804.7" x2="1083.67" y2="693.95" xlink:href="#Degradado_sin_nombre_3"/><linearGradient id="Degradado_sin_nombre_3-6" x1="1216.24" y1="804.7" x2="1216.24" y2="693.95" xlink:href="#Degradado_sin_nombre_3"/></defs><title>SERFIN Redes Sociales</title><path class="cls-1" d="M441.31,667.19l-70.2-40.53a45.51,45.51,0,0,0-45.51,0l-70.2,40.53a45.51,45.51,0,0,0-22.75,39.41v81.06a45.51,45.51,0,0,0,22.75,39.41l70.2,40.53a45.51,45.51,0,0,0,45.51,0l70.2-40.53a45.51,45.51,0,0,0,22.75-39.41V706.6A45.51,45.51,0,0,0,441.31,667.19Z"/><path class="cls-2" d="M349.48,855.93l-95.29-55v-110l95.29-55,95.29,55v110Zm-89-58.63,89,51.4,89-51.4V694.5l-89-51.4-89,51.4Z"/><circle class="cls-3" cx="257.06" cy="695.35" r="10.74"/><circle class="cls-4" cx="438.66" cy="695.35" r="10.74"/><circle class="cls-5" cx="257.06" cy="798.23" r="10.74"/><circle class="cls-6" cx="438.66" cy="798.23" r="10.74"/><circle class="cls-7" cx="348.31" cy="641.68" r="10.74"/><circle class="cls-8" cx="348.31" cy="851.01" r="10.74"/><rect class="cls-9" x="310.24" y="698.64" width="107.02" height="6.26" transform="translate(-309.63 287.82) rotate(-31.02)"/><rect class="cls-10" x="280.72" y="786.31" width="107.02" height="6.26" transform="translate(-359.03 285.14) rotate(-31.02)"/><circle class="cls-11" cx="317.89" cy="729.35" r="10.74"/><circle class="cls-12" cx="380.09" cy="761.87" r="10.74"/><path class="cls-13" d="M614.49,700.12,603,722.44a34.36,34.36,0,0,0-8.89-5.22,27.09,27.09,0,0,0-10.21-2q-.73,0-1.62.07a7.72,7.72,0,0,0-1.76.37,15,15,0,0,0-6.17,2.94,7.1,7.1,0,0,0-2.79,5.88,6.89,6.89,0,0,0,2.64,5.65,24.47,24.47,0,0,0,5.73,3.45c.78.29,1.54.56,2.28.81s1.44.47,2.13.66l7.34,2.06a53.74,53.74,0,0,1,19.46,10.21Q619,754,619,767.54v2.35a51.93,51.93,0,0,1-2.79,14.91,28.6,28.6,0,0,1-8.67,12.56,36.84,36.84,0,0,1-12.63,7.2,60.75,60.75,0,0,1-14.4,2.94c-.79,0-1.54,0-2.28.07s-1.45.08-2.13.08a64.64,64.64,0,0,1-20.42-3.31,72.53,72.53,0,0,1-18.51-9.18l12.34-23.36A59.43,59.43,0,0,0,561.39,780a28.93,28.93,0,0,0,13.73,3.38h1.17a17.11,17.11,0,0,0,8.81-3q4-2.72,4-8.15a7.89,7.89,0,0,0-3.31-6.61,27.79,27.79,0,0,0-7.42-4q-1.76-.58-3.53-1.1l-3.23-1a2.91,2.91,0,0,0-.66-.22,2.52,2.52,0,0,1-.66-.22q-13.08-3.67-20.86-9.4t-7.78-21.45q0-16.89,10.8-27t27.4-10.14a67.2,67.2,0,0,1,6.9.37,50.77,50.77,0,0,1,7.05,1.25,85.24,85.24,0,0,1,10.94,3.08,62.09,62.09,0,0,1,9.77,4.41Z"/><path class="cls-14" d="M705.57,718.33v18.51H738v24.38H705.57v19.1h34.23V804.7h-63V693.95h63v24.38Z"/><path class="cls-15" d="M858.92,759.31l34.81,45.39H857.89l-27.18-42.6h-.3v42.6H801.63V693.95h43q16.45.15,27.47,8.3t11,25.93a34.52,34.52,0,0,1-6.24,20.34q-6.25,8.89-18,10.94Zm-28.5-15.72h2.79a7.38,7.38,0,0,0,1.47.15H836a28.72,28.72,0,0,0,11.83-3q5.36-2.72,5.36-10.8T847.83,719A28.47,28.47,0,0,0,836,716h-5.58Z"/><path class="cls-16" d="M974.38,718.33v18.51H1006v24.38H974.38V804.7H945.59V693.95h63.61v24.38Z"/><path class="cls-17" d="M1098.06,804.7h-28.79V693.95h28.79Z"/><path class="cls-18" d="M1160.93,693.95h28.79l52.74,67.72h.29V693.95h28.79V804.7h-28.79L1190,736.84h-.3V804.7h-28.79Z"/></svg>